<?xml version="1.0" encoding="UTF-8" standalone="no"?>
<svg width="502px" height="161px" viewBox="0 0 502 161" version="1.1" xmlns="http://www.w3.org/2000/svg" xmlns:xlink="http://www.w3.org/1999/xlink" xmlns:sketch="http://www.bohemiancoding.com/sketch/ns">
    <!-- Generator: Sketch 3.2.2 (9983) - http://www.bohemiancoding.com/sketch -->
    <title>红包封头</title>
    <desc>Created with Sketch.</desc>
    <defs>
        <filter x="-50%" y="-50%" width="200%" height="200%" filterUnits="objectBoundingBox" id="filter-1">
            <feOffset dx="0" dy="4" in="SourceAlpha" result="shadowOffsetOuter1"></feOffset>
            <feGaussianBlur stdDeviation="1" in="shadowOffsetOuter1" result="shadowBlurOuter1"></feGaussianBlur>
            <feColorMatrix values="0 0 0 0 0   0 0 0 0 0   0 0 0 0 0  0 0 0 0.100835032 0" in="shadowBlurOuter1" type="matrix" result="shadowMatrixOuter1"></feColorMatrix>
            <feMerge>
                <feMergeNode in="shadowMatrixOuter1"></feMergeNode>
                <feMergeNode in="SourceGraphic"></feMergeNode>
            </feMerge>
        </filter>
        <path d="M499.594429,0.0740479647 C453.649853,91.3257498 359.135456,153.925977 249.999994,153.925977 C140.864531,153.925977 46.3501346,91.3257498 0.405558213,0.0740479647 L499.594442,0.074022655 Z" id="path-2"></path>
    </defs>
    <g id="Page-1" stroke="none" stroke-width="1" fill="none" fill-rule="evenodd" sketch:type="MSPage">
        <g id="领红页面" sketch:type="MSArtboardGroup" transform="translate(-70.000000, -404.000000)">
            <g id="红包封头" sketch:type="MSLayerGroup" transform="translate(71.000000, 404.000000)">
                <path d="M499.999987,0.922974379 C453.980757,92.3229482 359.312787,155.024893 249.999994,155.024893 C140.6872,155.024893 46.0192303,92.3229482 -7.10542736e-15,0.922974379 L500,0.922949028 Z" id="Oval-6" fill="#FD5A5A" filter="url(#filter-1)" sketch:type="MSShapeGroup"></path>
                <g id="New-Mask-Group" transform="translate(0.000000, 1.000000)">
                    <mask id="mask-3" sketch:name="Mask" fill="white">
                        <use xlink:href="#path-2"></use>
                    </mask>
                    <use id="Mask" sketch:type="MSShapeGroup" xlink:href="#path-2"></use>
                    <path d="M3.77002808,-21.1647182 L33.1561196,-38.1647182 L139.942547,147.164718 L110.556455,164.164718 L3.77002808,-21.1647182 L3.77002808,-21.1647182 Z" id="Rectangle-13" fill="#EF3737" sketch:type="MSShapeGroup" mask="url(#mask-3)"></path>
                    <path d="M210.356854,-21.1647182 L239.742946,-38.1647182 L346.529373,147.164718 L317.143282,164.164718 L210.356854,-21.1647182 L210.356854,-21.1647182 Z" id="Rectangle-13" fill="#EF3737" sketch:type="MSShapeGroup" mask="url(#mask-3)"></path>
                    <path d="M55.6662357,-21.1647182 L85.0523272,-38.1647182 L191.838754,147.164718 L162.452663,164.164718 L55.6662357,-21.1647182 L55.6662357,-21.1647182 Z" id="Rectangle-13" fill="#EF3737" sketch:type="MSShapeGroup" mask="url(#mask-3)"></path>
                    <path d="M262.253062,-21.1647182 L291.639154,-38.1647182 L398.425581,147.164718 L369.039489,164.164718 L262.253062,-21.1647182 L262.253062,-21.1647182 Z" id="Rectangle-13" fill="#EF3737" sketch:type="MSShapeGroup" mask="url(#mask-3)"></path>
                    <path d="M106.564439,-21.1647182 L135.950531,-38.1647182 L242.736958,147.164718 L213.350866,164.164718 L106.564439,-21.1647182 L106.564439,-21.1647182 Z" id="Rectangle-13" fill="#EF3737" sketch:type="MSShapeGroup" mask="url(#mask-3)"></path>
                    <path d="M313.151266,-21.1647182 L342.537357,-38.1647182 L449.323784,147.164718 L419.937693,164.164718 L313.151266,-21.1647182 L313.151266,-21.1647182 Z" id="Rectangle-13" fill="#EF3737" sketch:type="MSShapeGroup" mask="url(#mask-3)"></path>
                    <path d="M158.460647,-21.1647182 L187.846738,-38.1647182 L294.633166,147.164718 L265.247074,164.164718 L158.460647,-21.1647182 L158.460647,-21.1647182 Z" id="Rectangle-13" fill="#EF3737" sketch:type="MSShapeGroup" mask="url(#mask-3)"></path>
                    <path d="M365.047473,-21.1647182 L394.433565,-38.1647182 L501.219992,147.164718 L471.8339,164.164718 L365.047473,-21.1647182 L365.047473,-21.1647182 Z" id="Rectangle-13" fill="#EF3737" sketch:type="MSShapeGroup" mask="url(#mask-3)"></path>
                    <path d="M417.941685,-21.1647182 L447.327776,-38.1647182 L554.114203,147.164718 L524.728112,164.164718 L417.941685,-21.1647182 L417.941685,-21.1647182 Z" id="Rectangle-13" fill="#EF3737" sketch:type="MSShapeGroup" mask="url(#mask-3)"></path>
                    <path d="M469.837892,-21.1647182 L499.223984,-38.1647182 L606.010411,147.164718 L576.624319,164.164718 L469.837892,-21.1647182 L469.837892,-21.1647182 Z" id="Rectangle-13" fill="#EF3737" sketch:type="MSShapeGroup" mask="url(#mask-3)"></path>
                </g>
            </g>
        </g>
    </g>
</svg>