<?xml version="1.0" encoding="UTF-8" standalone="no"?>
<svg width="708px" height="215px" viewBox="0 0 708 215" version="1.1" xmlns="http://www.w3.org/2000/svg" xmlns:xlink="http://www.w3.org/1999/xlink" xmlns:sketch="http://www.bohemiancoding.com/sketch/ns">
    <!-- Generator: Sketch 3.2.2 (9983) - http://www.bohemiancoding.com/sketch -->
    <title>前云</title>
    <desc>Created with Sketch.</desc>
    <defs></defs>
    <g id="Page-1" stroke="none" stroke-width="1" fill="none" fill-rule="evenodd" sketch:type="MSPage">
        <g id="已抢完页面-2" sketch:type="MSArtboardGroup" transform="translate(-719.000000, -921.000000)" fill="#FFFFFF">
            <g id="前云" sketch:type="MSLayerGroup" transform="translate(719.000000, 921.000000)">
                <path d="M339.658411,141.61612 C321.791126,119.295368 294.314994,105 263.5,105 C259.967973,105 256.479812,105.18781 253.044958,105.553989 C236.794108,74.3262272 204.137557,53 166.5,53 C143.089987,53 121.606956,61.2503901 104.799973,75.0021039 C94.3628262,68.6552579 82.1082787,65 69,65 C30.8923523,65 0,95.8923523 0,134 C0,168.786579 25.7424649,197.560683 59.2168669,202.311784 C52.6645601,216.16741 49,231.655753 49,248 C49,307.094468 96.9055318,355 156,355 C184.385679,355 210.18973,343.946735 229.342852,325.909505 C250.651569,357.343614 286.663506,378 327.5,378 C392.945743,378 446,324.945743 446,259.5 C446,198.159155 399.392379,147.704104 339.658414,141.616124 Z" id="Oval-25" opacity="0.799965019" sketch:type="MSShapeGroup"></path>
                <path d="M766.684687,81.799495 C750.191809,61.1957245 724.829225,48 696.384615,48 C693.124283,48 689.904442,48.1733632 686.733807,48.5113743 C671.733022,19.6857482 641.588515,0 606.846154,0 C585.236911,0 565.406421,7.61574468 549.892282,20.3096344 C540.257993,14.4510073 528.946103,11.0769231 516.846154,11.0769231 C481.669864,11.0769231 453.153846,39.5929406 453.153846,74.7692308 C453.153846,106.879919 476.916121,133.44063 507.815569,137.826262 C501.767286,150.616071 498.384615,164.913003 498.384615,180 C498.384615,234.54874 542.605106,278.769231 597.153846,278.769231 C623.356012,278.769231 647.175136,268.566217 664.85494,251.916466 C684.524526,280.932567 717.766313,300 755.461538,300 C815.872993,300 864.846154,251.02684 864.846154,190.615385 C864.846154,133.993066 821.823734,87.4191728 766.68469,81.7994988 Z" id="Oval-24" opacity="0.697586287" sketch:type="MSShapeGroup" transform="translate(659.000000, 150.000000) scale(-1, 1) translate(-659.000000, -150.000000) "></path>
                <path d="M450.530841,181.799495 C434.037962,161.195724 408.675379,148 380.230769,148 C376.970437,148 373.750596,148.173363 370.579961,148.511374 C355.579176,119.685748 325.434668,100 290.692308,100 C269.083065,100 249.252574,107.615745 233.738436,120.309634 C224.104147,114.451007 212.792257,111.076923 200.692308,111.076923 C165.516017,111.076923 137,139.592941 137,174.769231 C137,206.879919 160.762275,233.44063 191.661723,237.826262 C185.61344,250.616071 182.230769,264.913003 182.230769,280 C182.230769,334.54874 226.45126,378.769231 281,378.769231 C307.202166,378.769231 331.021289,368.566217 348.701094,351.916466 C368.370679,380.932567 401.612467,400 439.307692,400 C499.719147,400 548.692308,351.02684 548.692308,290.615385 C548.692308,233.993066 505.669888,187.419173 450.530844,181.799499 Z" id="Oval-24" opacity="0.697586287" sketch:type="MSShapeGroup" transform="translate(342.846154, 250.000000) scale(-1, 1) translate(-342.846154, -250.000000) "></path>
            </g>
        </g>
    </g>
</svg>