<?xml version="1.0" encoding="UTF-8" standalone="no"?>
<svg width="256px" height="256px" viewBox="0 0 256 256" version="1.1" xmlns="http://www.w3.org/2000/svg" xmlns:xlink="http://www.w3.org/1999/xlink" xmlns:sketch="http://www.bohemiancoding.com/sketch/ns">
    <!-- Generator: Sketch 3.2.2 (9983) - http://www.bohemiancoding.com/sketch -->
    <title>水印logo</title>
    <desc>Created with Sketch.</desc>
    <defs></defs>
    <g id="Page-1" stroke="none" stroke-width="1" fill="none" fill-rule="evenodd" sketch:type="MSPage">
        <g id="已抢完页面-2" sketch:type="MSArtboardGroup" transform="translate(-1074.000000, -699.000000)" fill="#D80303">
            <g id="水印logo" sketch:type="MSLayerGroup" transform="translate(1074.000000, 699.000000)">
                <path d="M222.070642,0.723584906 L33.1903585,0.723584906 C14.9105094,0.723584906 0.0975283019,15.4774717 0.0975283019,33.6686792 L0.0975283019,222.514491 C0.0975283019,240.784491 14.9105094,255.607321 33.1903585,255.607321 L179.90683,255.607321 L179.90683,219.062396 L53.1790189,219.062396 C44.0341698,219.062396 36.6375283,211.650981 36.6375283,202.530755 L36.6375283,53.6130189 C36.6375283,44.4878679 44.0341698,37.0863019 53.1790189,37.0863019 L202.081981,37.0863019 C211.216981,37.0863019 218.628396,44.4878679 218.628396,53.6130189 L218.628396,255.607321 L222.070642,255.607321 C240.340642,255.607321 255.158547,240.784491 255.158547,222.514491 L255.158547,33.6686792 C255.158547,15.4774717 240.340642,0.723584906 222.070642,0.723584906" id="Fill-1" sketch:type="MSShapeGroup"></path>
                <path d="M75.3393962,75.7930943 L179.911755,75.7930943 L179.911755,180.345755 L75.3393962,180.345755 L75.3393962,75.7930943 Z" id="Fill-2" sketch:type="MSShapeGroup"></path>
            </g>
        </g>
    </g>
</svg>