<?xml version="1.0" encoding="UTF-8" standalone="no"?>
<svg width="57px" height="56px" viewBox="0 0 57 56" version="1.1" xmlns="http://www.w3.org/2000/svg" xmlns:xlink="http://www.w3.org/1999/xlink" xmlns:sketch="http://www.bohemiancoding.com/sketch/ns">
    <!-- Generator: Sketch 3.2.2 (9983) - http://www.bohemiancoding.com/sketch -->
    <title>朋友圈icon</title>
    <desc>Created with Sketch.</desc>
    <defs></defs>
    <g id="Page-1" stroke="none" stroke-width="1" fill="none" fill-rule="evenodd" sketch:type="MSPage">
        <g id="分享蒙层-2" sketch:type="MSArtboardGroup" transform="translate(-1050.000000, -336.000000)" fill="#FFFFFF">
            <path d="M1085.30645,346.534552 L1085.30645,346.497852 L1085.26665,346.497852 L1085.30645,346.534552 L1085.30645,346.534552 Z M1078.06778,336 C1076.99341,336 1075.93766,336.064357 1074.89919,336.186042 C1072.35421,336.472212 1069.91456,337.104692 1067.62146,338.022717 C1067.62146,338.022717 1086.53093,356.631431 1087.03438,357.323035 L1087.03438,337.47904 C1086.47084,337.288078 1085.89498,337.116329 1085.31448,336.956452 C1083.00489,336.338656 1080.57466,336 1078.06778,336 L1078.06778,336 Z M1085.30645,346.534552 L1085.26665,346.497852 L1085.30645,346.497852 L1085.30645,346.534552 L1085.30645,346.534552 Z M1095.44695,356.624283 L1095.46845,356.596483 L1095.44695,356.569183 L1095.44695,356.624283 L1095.44695,356.624283 Z M1097.81944,344.084229 C1097.06128,343.330377 1096.26731,342.63354 1095.44695,341.987392 C1093.44163,340.403381 1091.26831,339.129908 1088.99673,338.170722 C1088.99673,338.170722 1089.13567,364.617484 1088.99673,365.461936 L1103.11117,351.428742 C1102.84696,350.899046 1102.56201,350.371849 1102.2619,349.854416 C1101.06477,347.793272 1099.59212,345.844363 1097.81944,344.084229 L1097.81944,344.084229 Z M1095.44695,356.624283 L1095.44695,356.569183 L1095.47115,356.596483 L1095.44695,356.624283 L1095.44695,356.624283 Z M1095.50265,371.214316 L1095.50265,371.177216 L1095.46595,371.214316 L1095.50265,371.214316 L1095.50265,371.214316 Z M1104.01526,353.63055 C1104.01526,353.63055 1085.30741,372.4321 1084.60698,372.933054 L1104.56481,372.933054 C1104.75653,372.372586 1104.92956,371.799933 1105.08758,371.222672 C1105.71128,368.920815 1106.05215,366.511487 1106.05215,364.01648 C1106.05215,362.949824 1105.985,361.898165 1105.86224,360.865484 C1105.57446,358.334471 1104.94126,355.908664 1104.01526,353.63055 L1104.01526,353.63055 Z M1095.50265,371.214316 L1095.46595,371.214316 L1095.50265,371.177216 L1095.50265,371.214316 L1095.50265,371.214316 Z M1085.22006,381.434667 L1085.16816,381.434667 L1085.19276,381.461667 L1085.22006,381.434667 L1085.22006,381.434667 Z M1076.26164,375.022628 L1090.37576,389.055821 C1090.9133,388.791052 1091.43882,388.511833 1091.96167,388.21137 C1094.03406,387.025763 1095.99147,385.558907 1097.76666,383.793618 C1098.522,383.042187 1099.22031,382.25022 1099.87283,381.434667 C1101.46298,379.439989 1102.74666,377.28145 1103.71068,375.020128 C1103.71068,375.020128 1077.11335,375.158683 1076.26164,375.022628 L1076.26164,375.022628 Z M1085.22006,381.434667 L1085.19276,381.461667 L1085.16816,381.434667 L1085.22006,381.434667 L1085.22006,381.434667 Z M1070.75668,381.449732 L1070.79348,381.449732 L1070.75668,381.413032 L1070.75668,381.449732 L1070.75668,381.449732 Z M1069.01989,370.614326 L1069.01989,390.46082 C1069.58594,390.65147 1070.16149,390.82564 1070.73956,390.980987 C1073.05221,391.601205 1075.47749,391.939548 1077.98649,391.939548 C1079.0563,391.939548 1080.11418,391.87277 1081.15053,391.753741 C1083.69551,391.464837 1086.13516,390.835403 1088.42817,389.914332 C1088.43069,389.914332 1069.52334,371.310851 1069.01989,370.614326 L1069.01989,370.614326 Z M1070.75668,381.450411 L1070.75668,381.410611 L1070.79618,381.450411 L1070.75668,381.450411 L1070.75668,381.450411 Z M1060.59143,371.248708 L1060.59143,371.194008 L1060.56413,371.221308 L1060.59143,371.248708 L1060.59143,371.248708 Z M1067.03335,362.336948 L1052.92386,376.370142 C1053.18799,376.906868 1053.47365,377.431877 1053.77336,377.94689 C1054.96562,380.012642 1056.44071,381.95913 1058.21582,383.721919 C1058.97155,384.475849 1059.76796,385.169874 1060.58808,385.816413 C1062.59576,387.402845 1064.76209,388.674209 1067.04104,389.63277 C1067.04104,389.63277 1066.89684,363.183821 1067.03335,362.336948 L1067.03335,362.336948 Z M1060.59143,371.248708 L1060.56413,371.221308 L1060.59143,371.194008 L1060.59143,371.248708 L1060.59143,371.248708 Z M1060.55675,356.745852 L1060.55675,356.775852 L1060.59075,356.745852 L1060.55675,356.745852 L1060.55675,356.745852 Z M1050.96182,356.72906 C1050.34056,359.028497 1050,361.440245 1050,363.935252 C1050,364.999174 1050.06715,366.053568 1050.18928,367.084139 C1050.47737,369.617261 1051.10814,372.043381 1052.03901,374.318762 C1052.03901,374.318762 1070.74474,355.517211 1071.44517,355.018678 L1051.4849,355.018678 C1051.29287,355.576725 1051.12016,356.151799 1050.96182,356.72906 L1050.96182,356.72906 Z M1060.55675,356.745852 L1060.59075,356.745852 L1060.55675,356.775852 L1060.55675,356.745852 L1060.55675,356.745852 Z M1070.7307,346.593294 L1070.7061,346.621094 L1070.7612,346.621094 L1070.7307,346.593294 L1070.7307,346.593294 Z M1063.9561,339.83557 C1061.87875,341.023598 1059.92135,342.490767 1058.15079,344.250823 C1057.38807,345.007174 1056.69259,345.799141 1056.0425,346.610086 C1054.44953,348.604452 1053.16867,350.765411 1052.20222,353.029233 C1052.20222,353.029233 1078.80442,352.888569 1079.65369,353.024625 L1065.54137,338.991353 C1065.00447,339.25831 1064.474,339.537529 1063.9561,339.83557 L1063.9561,339.83557 Z M1070.7307,346.593294 L1070.7612,346.621094 L1070.7061,346.621094 L1070.7307,346.593294 L1070.7307,346.593294 Z" id="朋友圈icon" sketch:type="MSShapeGroup"></path>
        </g>
    </g>
</svg>