<?xml version="1.0" encoding="UTF-8" standalone="no"?>
<svg width="640px" height="256px" viewBox="0 0 640 256" version="1.1" xmlns="http://www.w3.org/2000/svg" xmlns:xlink="http://www.w3.org/1999/xlink" xmlns:sketch="http://www.bohemiancoding.com/sketch/ns">
    <!-- Generator: Sketch 3.2.2 (9983) - http://www.bohemiancoding.com/sketch -->
    <title>后云</title>
    <desc>Created with Sketch.</desc>
    <defs></defs>
    <g id="Page-1" stroke="none" stroke-width="1" fill="none" fill-rule="evenodd" sketch:type="MSPage">
        <g id="领红页面" sketch:type="MSArtboardGroup" transform="translate(0.000000, -880.000000)" fill="#FFFFFF">
            <g id="后云" sketch:type="MSLayerGroup" transform="translate(-90.000000, 880.000000)">
                <path d="M391.916504,109.81884 C384.713916,102.305568 375.9937,96.3914355 366.280484,92.6267511 L366.280484,92.6267511 C357.680331,47.2850678 317.844019,13 270,13 C250.940797,13 233.15235,18.4407552 218.103084,27.8538417 C211.873719,25.9950414 205.297639,25 198.5,25 C190.689328,25 183.171173,26.3137167 176.135397,28.7419921 C166.688311,11.6074841 148.449692,0 127.5,0 C112.65598,0 99.1730576,5.82754772 89.2142391,15.3196355 L89.2142331,15.3196339 C83.5494664,13.805058 77.6143615,13 71.5,13 C32.0116404,13 0,46.5786438 0,88 C0,129.421356 32.0116404,163 71.5,163 C72.3660565,163 73.2285167,162.983848 74.0871216,162.951816 L74.0871216,162.951816 C68.2240253,173.48289 65,184.971884 65,197 C65,247.810197 122.53141,289 193.5,289 C230.323282,289 263.528962,277.910746 286.957466,260.142204 C297.583095,320.867729 350.195764,367 413.5,367 C484.46859,367 542,309.020875 542,237.5 C542,165.979125 484.46859,108 413.5,108 C406.144808,108 398.933948,108.62277 391.916508,109.81884 Z" id="Oval-9" opacity="0.484083489" sketch:type="MSShapeGroup"></path>
                <path d="M709.162056,104.337993 C702.451157,97.3365235 694.326233,91.8252615 685.276097,88.317027 L685.276097,88.317027 C677.263039,46.0640142 640.14618,14.1144414 595.568266,14.1144414 C577.810152,14.1144414 561.236046,19.1845729 547.214128,27.956441 C541.410015,26.224262 535.282855,25.2970027 528.949262,25.2970027 C521.671791,25.2970027 514.666868,26.5212292 508.111394,28.7840908 C499.30922,12.8167836 482.315673,2 462.796125,2 C448.965443,2 436.402941,7.43057581 427.123968,16.2760636 L427.123963,16.2760622 C421.845905,14.864659 416.315964,14.1144414 410.619004,14.1144414 C373.826344,14.1144414 344,45.4057116 344,84.0054496 C344,122.605188 373.826344,153.896458 410.619004,153.896458 C411.425938,153.896458 412.229522,153.881406 413.029514,153.851557 L413.029514,153.851557 C407.566666,163.665254 404.562731,174.37162 404.562731,185.580381 C404.562731,232.929393 458.166719,271.313351 524.29059,271.313351 C558.600106,271.313351 589.538978,260.979496 611.368118,244.421346 C621.268382,301.010254 670.289412,344 729.27214,344 C795.396011,344 849,289.970407 849,223.321526 C849,156.672645 795.396011,102.643052 729.27214,102.643052 C722.419055,102.643052 715.70045,103.223398 709.16206,104.337992 Z" id="Oval-9" opacity="0.4609375" sketch:type="MSShapeGroup" transform="translate(596.500000, 173.000000) scale(-1, 1) translate(-596.500000, -173.000000) "></path>
                <path d="M663.886206,207.803518 C656.298239,199.880803 647.111444,193.644375 636.878517,189.67453 L636.878517,189.67453 C627.818208,141.861911 585.850433,105.708447 535.446494,105.708447 C515.367519,105.708447 496.627292,111.445701 480.772807,121.371762 C474.210136,119.411665 467.282199,118.362398 460.120849,118.362398 C451.892263,118.362398 443.971844,119.747707 436.559616,122.308313 C426.607059,104.240045 407.392572,92 385.321956,92 C369.683699,92 355.479365,98.1451253 344.987695,108.154493 L344.987688,108.154491 C339.019825,106.557377 332.767159,105.708447 326.325646,105.708447 C284.72444,105.708447 251,141.116989 251,184.79564 C251,228.474291 284.72444,263.882834 326.325646,263.882834 C327.238041,263.882834 328.146648,263.865802 329.051193,263.832024 L329.051193,263.832024 C322.874388,274.936998 319.47786,287.052096 319.47786,299.735695 C319.47786,353.31484 380.087518,396.749319 454.853321,396.749319 C493.646852,396.749319 528.62922,385.055745 553.311278,366.318891 C564.505438,430.353709 619.933176,479 686.624539,479 C761.390341,479 822,417.86125 822,342.442779 C822,267.024309 761.390341,205.885559 686.624539,205.885559 C678.875803,205.885559 671.279123,206.542266 663.88621,207.803518 Z" id="Oval-9" opacity="0.4609375" sketch:type="MSShapeGroup" transform="translate(536.500000, 285.500000) scale(-1, 1) translate(-536.500000, -285.500000) "></path>
            </g>
        </g>
    </g>
</svg>