<?xml version="1.0" encoding="UTF-8" standalone="no"?>
<svg width="117px" height="121px" viewBox="0 0 117 121" version="1.1" xmlns="http://www.w3.org/2000/svg" xmlns:xlink="http://www.w3.org/1999/xlink" xmlns:sketch="http://www.bohemiancoding.com/sketch/ns">
    <!-- Generator: Sketch 3.2.2 (9983) - http://www.bohemiancoding.com/sketch -->
    <title>可配置icon</title>
    <desc>Created with Sketch.</desc>
    <defs>
        <filter x="-50%" y="-50%" width="200%" height="200%" filterUnits="objectBoundingBox" id="filter-1">
            <feOffset dx="0" dy="4" in="SourceAlpha" result="shadowOffsetOuter1"></feOffset>
            <feGaussianBlur stdDeviation="1" in="shadowOffsetOuter1" result="shadowBlurOuter1"></feGaussianBlur>
            <feColorMatrix values="0 0 0 0 0   0 0 0 0 0   0 0 0 0 0  0 0 0 0.298879076 0" in="shadowBlurOuter1" type="matrix" result="shadowMatrixOuter1"></feColorMatrix>
            <feMorphology radius="2" in="SourceAlpha" operator="dilate" result="shadowSpreadInner1"></feMorphology>
            <feOffset dx="0" dy="4" in="shadowSpreadInner1" result="shadowOffsetInner1"></feOffset>
            <feGaussianBlur stdDeviation="0.5" in="shadowOffsetInner1" result="shadowBlurInner1"></feGaussianBlur>
            <feComposite in="shadowBlurInner1" in2="SourceAlpha" operator="arithmetic" k2="-1" k3="1" result="shadowInnerInner1"></feComposite>
            <feColorMatrix values="0 0 0 0 0   0 0 0 0 0   0 0 0 0 0  0 0 0 0.236998981 0" in="shadowInnerInner1" type="matrix" result="shadowMatrixInner1"></feColorMatrix>
            <feMerge>
                <feMergeNode in="shadowMatrixOuter1"></feMergeNode>
                <feMergeNode in="SourceGraphic"></feMergeNode>
                <feMergeNode in="shadowMatrixInner1"></feMergeNode>
            </feMerge>
        </filter>
    </defs>
    <g id="Page-1" stroke="none" stroke-width="1" fill="none" fill-rule="evenodd" sketch:type="MSPage">
        <g id="已抢完页面-2" sketch:type="MSArtboardGroup" transform="translate(-1049.000000, -437.000000)">
            <g id="可配置icon" sketch:type="MSLayerGroup" transform="translate(1054.000000, 442.000000)">
                <circle id="Oval-8" stroke="#DB6602" stroke-width="9" fill="#FEA513" filter="url(#filter-1)" sketch:type="MSShapeGroup" cx="53.5" cy="53.5" r="53.5"></circle>
                <g id="Imported-Layers" transform="translate(27.000000, 27.000000)" fill="#D86E03" sketch:type="MSShapeGroup">
                    <path d="M45.704,0.35 L7.349,0.35 C3.637,0.35 0.629,3.346 0.629,7.04 L0.629,45.388 C0.629,49.098 3.637,52.108 7.349,52.108 L37.142,52.108 L37.142,44.687 L11.408,44.687 C9.551,44.687 8.049,43.182 8.049,41.33 L8.049,11.09 C8.049,9.237 9.551,7.734 11.408,7.734 L41.645,7.734 C43.5,7.734 45.005,9.237 45.005,11.09 L45.005,52.108 L45.704,52.108 C49.414,52.108 52.423,49.098 52.423,45.388 L52.423,7.04 C52.423,3.346 49.414,0.35 45.704,0.35" id="Fill-1"></path>
                    <path d="M15.908,15.594 L37.143,15.594 L37.143,36.825 L15.908,36.825 L15.908,15.594 Z" id="Fill-2"></path>
                </g>
            </g>
        </g>
    </g>
</svg>