<?xml version="1.0" encoding="UTF-8" standalone="no"?>
<svg width="575px" height="295px" viewBox="0 0 575 295" version="1.1" xmlns="http://www.w3.org/2000/svg" xmlns:xlink="http://www.w3.org/1999/xlink" xmlns:sketch="http://www.bohemiancoding.com/sketch/ns">
    <!-- Generator: Sketch 3.2.2 (9983) - http://www.bohemiancoding.com/sketch -->
    <title>彩带</title>
    <desc>Created with Sketch.</desc>
    <defs></defs>
    <g id="Page-1" stroke="none" stroke-width="1" fill="none" fill-rule="evenodd" sketch:type="MSPage">
        <g id="领红页面" sketch:type="MSArtboardGroup" transform="translate(-28.000000, -154.000000)">
            <g id="彩带" sketch:type="MSLayerGroup" transform="translate(22.000000, 152.000000)">
                <path d="M67,212.796684 C67,212.796684 74.7745222,217.155934 76.579741,209.513677 C78.3849597,201.871419 76.0724264,211.865183 81.6781056,217.788083 C87.2837848,223.710983 73.13945,218.449839 74.8595955,223.698373 C76.579741,228.946908 67,212.796684 67,212.796684 Z" id="Path-9" fill="#FF7D7D" sketch:type="MSShapeGroup"></path>
                <path d="M5.66852367,276.260218 C5.66852367,276.260218 14.8624541,281.415344 16.9972548,272.377826 C19.1320555,263.340308 16.3973189,275.158651 23.0264368,282.162905 C29.6555547,289.16716 12.9288638,282.945479 14.9630593,289.152248 C16.9972548,295.359016 5.66852367,276.260218 5.66852367,276.260218 Z" id="Path-9" fill="#FB4A4A" sketch:type="MSShapeGroup" transform="translate(15.129098, 279.749826) rotate(-45.000000) translate(-15.129098, -279.749826) "></path>
                <path d="M546.949067,11.4950302 C546.949067,11.4950302 557.030159,17.3569509 559.370956,7.08034231 C561.711752,-3.1962663 558.713129,10.2424327 565.981919,18.2070069 C573.250709,26.1715811 554.909988,19.0968755 557.140472,26.1546244 C559.370956,33.2123732 546.949067,11.4950302 546.949067,11.4950302 Z" id="Path-9" fill="#FF4848" sketch:type="MSShapeGroup" transform="translate(557.322532, 15.463082) rotate(-20.000000) translate(-557.322532, -15.463082) "></path>
                <path d="M220.633375,196.095988 C220.633375,196.095988 230.714468,201.957908 233.055265,191.6813 C235.396061,181.404691 232.397438,194.84339 239.666228,202.807964 C246.935018,210.772538 228.594297,203.697833 230.824781,210.755582 C233.055265,217.813331 220.633375,196.095988 220.633375,196.095988 Z" id="Path-9" fill="#FF4848" sketch:type="MSShapeGroup" transform="translate(231.006841, 200.064039) rotate(-346.000000) translate(-231.006841, -200.064039) "></path>
                <path d="M529.633375,202.779496 C529.633375,202.779496 539.714468,208.641417 542.055265,198.364808 C544.396061,188.0882 541.397438,201.526899 548.666228,209.491473 C555.935018,217.456047 537.594297,210.381341 539.824781,217.43909 C542.055265,224.496839 529.633375,202.779496 529.633375,202.779496 Z" id="Path-9" fill="#FF4848" sketch:type="MSShapeGroup" transform="translate(540.006841, 206.747547) rotate(-346.000000) translate(-540.006841, -206.747547) "></path>
                <path d="M377.614474,208.658483 C377.614474,208.658483 387.695566,214.520404 390.036363,204.243795 C392.377159,193.967187 389.378536,207.405886 396.647326,215.37046 C403.916116,223.335034 385.575395,216.260329 387.805879,223.318077 C390.036363,230.375826 377.614474,208.658483 377.614474,208.658483 Z" id="Path-9" fill="#FF6616" sketch:type="MSShapeGroup" transform="translate(387.987939, 212.626535) rotate(-90.000000) translate(-387.987939, -212.626535) "></path>
                <path d="M562.143072,282.988931 C562.143072,282.988931 571.20332,288.257254 573.30708,279.021288 C575.41084,269.785322 572.715867,281.863175 579.248596,289.021231 C585.781325,296.179286 569.297845,289.820988 571.302462,296.164047 C573.30708,302.507105 562.143072,282.988931 562.143072,282.988931 Z" id="Path-9" fill="#FEA513" sketch:type="MSShapeGroup" transform="translate(571.466086, 286.555164) rotate(-120.000000) translate(-571.466086, -286.555164) "></path>
                <path d="M135.595849,17.4461593 C135.595849,17.4461593 144.656097,22.7144829 146.759857,13.478517 C148.863617,4.24255106 146.168645,16.3204038 152.701373,23.4784595 C159.234102,30.6365151 142.750622,24.2782171 144.75524,30.6212755 C146.759857,36.9643338 135.595849,17.4461593 135.595849,17.4461593 Z" id="Path-9" fill="#FF6616" sketch:type="MSShapeGroup" transform="translate(144.918864, 21.012393) rotate(-120.000000) translate(-144.918864, -21.012393) "></path>
                <circle id="Oval-40" fill="#F8D61C" sketch:type="MSShapeGroup" cx="175.5" cy="224.5" r="5.5"></circle>
                <circle id="Oval-40" fill="#EF3737" sketch:type="MSShapeGroup" cx="30.5" cy="143.5" r="5.5"></circle>
                <circle id="Oval-40" fill="#EF3737" sketch:type="MSShapeGroup" cx="303.5" cy="230.5" r="5.5"></circle>
                <circle id="Oval-40" fill="#E69E00" sketch:type="MSShapeGroup" cx="501.5" cy="132.5" r="5.5"></circle>
                <circle id="Oval-40" fill="#F8D61C" sketch:type="MSShapeGroup" cx="30.5" cy="10.5" r="5.5"></circle>
                <circle id="Oval-40" fill="#D86E03" sketch:type="MSShapeGroup" cx="335.581136" cy="144.5" r="5.5"></circle>
                <circle id="Oval-40" fill="#FF7D7D" sketch:type="MSShapeGroup" cx="457.5" cy="215.5" r="5.5"></circle>
                <circle id="Oval-40" fill="#FF6616" sketch:type="MSShapeGroup" cx="378.5" cy="7.5" r="5.5"></circle>
            </g>
        </g>
    </g>
</svg>