<?xml version="1.0" encoding="UTF-8" standalone="no"?>
<svg width="400px" height="264px" viewBox="0 0 400 264" version="1.1" xmlns="http://www.w3.org/2000/svg" xmlns:xlink="http://www.w3.org/1999/xlink" xmlns:sketch="http://www.bohemiancoding.com/sketch/ns">
    <!-- Generator: Sketch 3.2.2 (9983) - http://www.bohemiancoding.com/sketch -->
    <title>优惠卷纸</title>
    <desc>Created with Sketch.</desc>
    <defs></defs>
    <g id="Page-1" stroke="none" stroke-width="1" fill="none" fill-rule="evenodd" sketch:type="MSPage">
        <g id="结果页面-标注" sketch:type="MSArtboardGroup" transform="translate(-1257.000000, -363.000000)">
            <g id="优惠卷纸" sketch:type="MSLayerGroup" transform="translate(1257.000000, 363.000000)">
                <rect id="Rectangle-32" fill="#FDFBE5" sketch:type="MSShapeGroup" x="0" y="10" width="400" height="254"></rect>
                <g id="Group" sketch:type="MSShapeGroup">
                    <path d="M0,10 L5.88235294,0.615783691 L11.7647059,10 L0,10 Z" id="Path-39" fill="#FDFBE4"></path>
                    <path d="M35.2941176,10 L41.1764706,0.615783691 L47.0588235,10 L35.2941176,10 Z" id="Path-39" fill="#FDFBE4"></path>
                    <path d="M70.5882353,10 L76.4705882,0.615783691 L82.3529412,10 L70.5882353,10 Z" id="Path-39" fill="#FDFBE4"></path>
                    <path d="M105.882353,10 L111.764706,0.615783691 L117.647059,10 L105.882353,10 Z" id="Path-39" fill="#FDFBE4"></path>
                    <path d="M141.176471,10 L147.058824,0.615783691 L152.941176,10 L141.176471,10 Z" id="Path-39" fill="#FDFBE4"></path>
                    <path d="M176.470588,10 L182.352941,0.615783691 L188.235294,10 L176.470588,10 Z" id="Path-39" fill="#FDFBE4"></path>
                    <path d="M211.764706,10 L217.647059,0.615783691 L223.529412,10 L211.764706,10 Z" id="Path-39" fill="#FDFBE4"></path>
                    <path d="M247.058824,10 L252.941176,0.615783691 L258.823529,10 L247.058824,10 Z" id="Path-39" fill="#FDFBE4"></path>
                    <path d="M282.352941,10 L288.235294,0.615783691 L294.117647,10 L282.352941,10 Z" id="Path-39" fill="#FDFBE4"></path>
                    <path d="M317.647059,10 L323.529412,0.615783691 L329.411765,10 L317.647059,10 Z" id="Path-39" fill="#FDFBE4"></path>
                    <path d="M352.941176,10 L358.823529,0.615783691 L364.705882,10 L352.941176,10 Z" id="Path-39" fill="#FDFBE4"></path>
                    <path d="M11.7647059,10 L17.6470588,0.615783691 L23.5294118,10 L11.7647059,10 Z" id="Path-39" fill="#FDFBE4"></path>
                    <path d="M47.0588235,10 L52.9411765,0.615783691 L58.8235294,10 L47.0588235,10 Z" id="Path-39" fill="#FDFBE4"></path>
                    <path d="M82.3529412,10 L88.2352941,0.615783691 L94.1176471,10 L82.3529412,10 Z" id="Path-39" fill="#FDFBE4"></path>
                    <path d="M117.647059,10 L123.529412,0.615783691 L129.411765,10 L117.647059,10 Z" id="Path-39" fill="#FDFBE4"></path>
                    <path d="M152.941176,10 L158.823529,0.615783691 L164.705882,10 L152.941176,10 Z" id="Path-39" fill="#FDFBE4"></path>
                    <path d="M188.235294,10 L194.117647,0.615783691 L200,10 L188.235294,10 Z" id="Path-39" fill="#FDFBE4"></path>
                    <path d="M223.529412,10 L229.411765,0.615783691 L235.294118,10 L223.529412,10 Z" id="Path-39" fill="#FDFBE4"></path>
                    <path d="M258.823529,10 L264.705882,0.615783691 L270.588235,10 L258.823529,10 Z" id="Path-39" fill="#FDFBE4"></path>
                    <path d="M294.117647,10 L300,0.615783691 L305.882353,10 L294.117647,10 Z" id="Path-39" fill="#FDFBE4"></path>
                    <path d="M329.411765,10 L335.294118,0.615783691 L341.176471,10 L329.411765,10 Z" id="Path-39" fill="#FDFBE4"></path>
                    <path d="M364.705882,10 L370.588235,0.615783691 L376.470588,10 L364.705882,10 Z" id="Path-39" fill="#FDFBE4"></path>
                    <path d="M23.5294118,10 L29.4117647,0.615783691 L35.2941176,10 L23.5294118,10 Z" id="Path-39" fill="#FDFBE4"></path>
                    <path d="M58.8235294,10 L64.7058824,0.615783691 L70.5882353,10 L58.8235294,10 Z" id="Path-39" fill="#FDFBE5"></path>
                    <path d="M94.1176471,10 L100,0.615783691 L105.882353,10 L94.1176471,10 Z" id="Path-39" fill="#FDFBE4"></path>
                    <path d="M129.411765,10 L135.294118,0.615783691 L141.176471,10 L129.411765,10 Z" id="Path-39" fill="#FDFBE4"></path>
                    <path d="M164.705882,10 L170.588235,0.615783691 L176.470588,10 L164.705882,10 Z" id="Path-39" fill="#FDFBE4"></path>
                    <path d="M200,10 L205.882353,0.615783691 L211.764706,10 L200,10 Z" id="Path-39" fill="#FDFBE4"></path>
                    <path d="M235.294118,10 L241.176471,0.615783691 L247.058824,10 L235.294118,10 Z" id="Path-39" fill="#FDFBE4"></path>
                    <path d="M270.588235,10 L276.470588,0.615783691 L282.352941,10 L270.588235,10 Z" id="Path-39" fill="#FDFBE4"></path>
                    <path d="M305.882353,10 L311.764706,0.615783691 L317.647059,10 L305.882353,10 Z" id="Path-39" fill="#FDFBE4"></path>
                    <path d="M341.176471,10 L347.058824,0.615783691 L352.941176,10 L341.176471,10 Z" id="Path-39" fill="#FDFBE4"></path>
                    <path d="M376.470588,10 L382.352941,0.615783691 L388.235294,10 L376.470588,10 Z" id="Path-39" fill="#FDFBE4"></path>
                    <path d="M388.235294,10 L394.117647,0.615783691 L400,10 L388.235294,10 Z" id="Path-39" fill="#FDFBE4"></path>
                </g>
            </g>
        </g>
    </g>
</svg>